<svg height="48" viewBox="0 0 48 48" width="48" xmlns="http://www.w3.org/2000/svg"><path d="m0 0h48v48h-48z" fill="none"/><path d="m40 12h-1.172l4-4-2.828-2.828-6.828 6.828h-.512l-3.464-6h-10.392l-3.464 6h-7.34c-2.2 0-4 1.8-4 4v18c0 1.943 1.405 3.569 3.248 3.924l-2.076 2.076 2.828 2.828 4.828-4.828h27.172c2.2 0 4-1.8 4-4v-18c0-2.2-1.8-4-4-4zm-10 12c0 3.314-2.686 6-6 6-.926 0-1.799-.216-2.582-.59l7.992-7.992c.374.783.59 1.656.59 2.582zm-12 0c0-3.314 2.686-6 6-6 .926 0 1.799.216 2.582.59l-7.992 7.992c-.374-.783-.59-1.656-.59-2.582z"/></svg>